<svg xmlns="http://www.w3.org/2000/svg" width="48" height="48" viewBox="0 0 48 48">
  <defs>
    <radialGradient id="bg" cx="50%" cy="40%" r="60%">
      <stop offset="0%" stop-color="#25d366"/>
      <stop offset="100%" stop-color="#00a884"/>
    </radialGradient>
  </defs>
  <rect x="1" y="1" width="46" height="46" rx="10" ry="10" fill="url(#bg)"/>
  <!-- Chat bubble -->
  <path d="M36 12H12c-2.5 0-4.5 2-4.5 4.5v15c0 2.5 2 4.5 4.5 4.5h6l5.5 5.5V36h12.5c2.5 0 4.5-2 4.5-4.5v-15c0-2.5-2-4.5-4.5-4.5z" fill="#fff" opacity="0.95"/>
  <!-- Sparkle -->
  <path d="M24 17.5l1.2 3 3.3.8-2.5 2.2.7 3.5-2.7-2-2.7 2 .7-3.5-2.5-2.2 3.3-.8z" fill="#00a884"/>
  <!-- Dots -->
  <circle cx="20" cy="21.5" r="1" fill="#00a884" opacity="0.6"/>
  <circle cx="28" cy="21.5" r="1" fill="#00a884" opacity="0.6"/>
  <circle cx="20" cy="25" r="1" fill="#00a884" opacity="0.6"/>
  <circle cx="24" cy="25" r="1" fill="#00a884" opacity="0.6"/>
  <circle cx="28" cy="25" r="1" fill="#00a884" opacity="0.6"/>
</svg>
